<?xml version="1.0" standalone="no"?>
<!DOCTYPE svg PUBLIC "-//W3C//DTD SVG 20010904//EN"
 "http://www.w3.org/TR/2001/REC-SVG-20010904/DTD/svg10.dtd">
<svg version="1.0" xmlns="http://www.w3.org/2000/svg"
 width="2560.000000pt" height="2560.000000pt" viewBox="0 0 2560.000000 2560.000000"
 preserveAspectRatio="xMidYMid meet">
<metadata>
Created by potrace 1.11, written by Peter Selinger 2001-2013
</metadata>
<g transform="translate(0.000000,2560.000000) scale(0.100000,-0.100000)"
fill="#000000" stroke="none">
<path d="M5080 14435 l0 -1805 3168 3 c3519 3 3210 -3 3502 68 679 167 1214
626 1410 1211 62 185 74 270 74 523 0 253 -12 338 -74 523 -196 585 -731 1044
-1410 1211 -292 71 17 65 -3502 68 l-3168 3 0 -1805z"/>
<path d="M13800 14435 l0 -1805 3168 3 c3519 3 3210 -3 3502 68 679 167 1214
626 1410 1211 62 185 74 270 74 523 0 253 -12 338 -74 523 -196 585 -731 1044
-1410 1211 -292 71 17 65 -3502 68 l-3168 3 0 -1805z"/>
<path d="M5080 10265 l0 -1805 3168 3 c3519 3 3210 -3 3502 68 679 167 1214
626 1410 1211 62 185 74 270 74 523 0 253 -12 338 -74 523 -196 585 -731 1044
-1410 1211 -292 71 17 65 -3502 68 l-3168 3 0 -1805z"/>
</g>
</svg>
